Simulation
nRows=44
nColumns=15
endheader
time  TH_x TH_y TH_z SC_y  SC_z  SC_x  AC_y  AC_z  AC_x  GH_y  GH_z  GH_yy  EL_x  PS_y
0.0  0.000000  0.000000  0.000000  -45.52117827546169  -9.716105914232811  33.690756644463335  61.105085201216774  -21.417435290053504  27.332026400305423  144.66751546008916  3.6971495856343926  -119.87593726941564  25.06018461229069  0.000000
0.015  0.000000  0.000000  0.000000  -45.83882622359847  -10.512946213357845  33.66543951052952  60.93794633029503  -21.50040656438311  27.55729395882146  119.72271579490713  4.062587892949109  -95.22925657470415  25.30165564781226  0.000000
0.03  0.000000  0.000000  0.000000  -45.88197847418895  -10.213398894528039  34.022864542328776  61.05218807878596  -21.679987812229214  27.81769189681085  105.46694597751036  4.973890197477251  -81.0832690865288  25.532720135502043  0.000000
0.045  0.000000  0.000000  0.000000  -46.046748377653564  -10.24227013817106  34.173151255840565  61.23219889376785  -21.68534916441979  27.956278249296567  98.00904833719223  5.686436802286356  -73.73100572269037  25.661945252828183  0.000000
0.06  0.000000  0.000000  0.000000  -46.166336341547634  -10.286117098108047  34.266194946709696  61.35279553967761  -21.666006516693717  28.082336673679134  93.34998903242028  6.125072090866268  -69.20835648029043  25.70115714633431  0.000000
0.075  0.000000  0.000000  0.000000  -46.29380992200729  -10.336865504792346  34.35740853046729  61.491914982171494  -21.636901701314116  28.189285358459756  89.61271767809579  6.3787449579872755  -65.6020829074092  25.667582701475148  0.000000
0.09  0.000000  0.000000  0.000000  -46.399253767380955  -10.375046528277476  34.42726079025165  61.605036554103094  -21.613911712747317  28.26136365903108  86.13247207901163  6.527596749983565  -62.27379008705296  25.612185897145228  0.000000
0.105  0.000000  0.000000  0.000000  -46.51318608000399  -10.406474111252052  34.49936106405251  61.718708518328704  -21.59499021138431  28.317716580776708  82.52835921187868  6.62539134291381  -58.83010468562874  25.533182528444566  0.000000
0.12  0.000000  0.000000  0.000000  -46.61550575275981  -10.427052915041058  34.55841497155316  61.82128084985579  -21.58013811345094  28.355433603866878  78.65990206001217  6.721750550618309  -55.145445483478504  25.446621108948275  0.000000
0.135  0.000000  0.000000  0.000000  -46.72373191918645  -10.448265978704919  34.62216266599482  61.91998365062415  -21.565775755234743  28.383041241103978  74.49424844684245  6.846562370231753  -51.18459574563318  25.347528098821357  0.000000
0.15  0.000000  0.000000  0.000000  -46.82301116426969  -10.461895382188242  34.675349381124825  62.01679741431431  -21.55174781107962  28.40375988833118  70.09156098757008  7.033267008834927  -47.01377266763212  25.247041737668624  0.000000
0.16499999999999998  0.000000  0.000000  0.000000  -46.933692101790434  -10.469917732379084  34.72982996514613  62.115841730402686  -21.536954530013013  28.42450334034705  65.60099827979958  7.300857164691847  -42.77898599507151  25.150183148640945  0.000000
0.18  0.000000  0.000000  0.000000  -47.03927486450652  -10.469878651284262  34.77261519155329  62.21921924377369  -21.519192313994317  28.44595688329529  61.17975515864191  7.66430299239521  -38.63850732930453  25.055127368576663  0.000000
0.195  0.000000  0.000000  0.000000  -47.15491892620685  -10.468491217319983  34.816808422373796  62.324012055015004  -21.497496493607265  28.469153983715373  56.9728994938099  8.124135911172246  -34.73522251245318  24.961189804031694  0.000000
0.21  0.000000  0.000000  0.000000  -47.26400192279537  -10.46168750110279  34.84984195866345  62.432081741770524  -21.471470358217836  28.49508926999702  53.06252370647363  8.681362298830887  -31.15185012708189  24.867787498694153  0.000000
0.22499999999999998  0.000000  0.000000  0.000000  -47.382528894988  -10.454190486295596  34.885577795859994  62.541535531038086  -21.44119238161509  28.524511223848013  49.508035608343064  9.327649648402877  -27.945297999560847  24.774180390243608  0.000000
0.24  0.000000  0.000000  0.000000  -47.493097838462866  -10.442852941638241  34.911572920162634  62.65414596781346  -21.40719030285018  28.556721798822277  46.31382268718268  10.058636320961526  -25.120712456740254  24.679547975208543  0.000000
0.255  0.000000  0.000000  0.000000  -47.61129693186212  -10.433403925779379  34.94208145446195  62.76783822633455  -21.36987383589565  28.592115624382423  43.46619877775326  10.861428967542306  -22.663305987143858  24.58392086126579  0.000000
0.27  0.000000  0.000000  0.000000  -47.7212450166627  -10.421933360430943  34.963520971112146  62.8836415857571  -21.329151226427218  28.628306410084196  40.94409737320718  11.730413026081676  -20.553929678141568  24.487025031677657  0.000000
0.285  0.000000  0.000000  0.000000  -47.839547331273415  -10.41335963250499  34.989712822746334  62.999022805559214  -21.285133493106706  28.664498981995106  38.716276774729344  12.651850287765386  -18.761931638463626  24.389745962432833  0.000000
0.3  0.000000  0.000000  0.000000  -47.94795749246642  -10.404438615315177  35.008398294174995  63.1157809967431  -21.23832548654369  28.700160276768685  36.736410112436225  13.618304147019499  -17.246862583351447  24.292020800661295  0.000000
0.315  0.000000  0.000000  0.000000  -48.05967705728002  -10.401314387951961  35.03599573371477  63.23392413537754  -21.188860315440493  28.734983800657215  34.96045319223771  14.616365417037313  -15.970209616205604  24.192567813027267  0.000000
0.32999999999999996  0.000000  0.000000  0.000000  -48.15681793331115  -10.40079774549314  35.05890394228558  63.35408901120128  -21.13709743380769  28.76782655130785  33.35615285516942  15.639071242856632  -14.91138652925084  24.09051308255738  0.000000
0.345  0.000000  0.000000  0.000000  -48.25549072142603  -10.407748329195186  35.088396761417904  63.47480644355665  -21.083195892670297  28.79886862256551  31.896669842028864  16.674839753601308  -14.053689092834368  23.986183742072086  0.000000
0.36  0.000000  0.000000  0.000000  -48.33687631696763  -10.420590961329166  35.11115592711683  63.597130118303205  -21.026883580549708  28.825899959782966  30.55841770678821  17.717011190385694  -13.387797215036834  23.880102692373594  0.000000
0.375  0.000000  0.000000  0.000000  -48.41300180453811  -10.445778272480604  35.1399509497256  63.719381197527156  -20.96926219514293  28.84791556322583  29.322574797554328  18.755611180367065  -12.903427030606  23.772196821805203  0.000000
0.39  0.000000  0.000000  0.000000  -48.46573281599384  -10.478994591646968  35.16143987232941  63.84072290441164  -20.91243214637885  28.864016526636266  28.182997178812055  19.78342845378124  -12.599656983260454  23.663074596767416  0.000000
0.40499999999999997  0.000000  0.000000  0.000000  -48.51215154551495  -10.521797490979043  35.185988786313345  63.95496542368699  -20.858901477184702  28.875393887231688  27.146764930310628  20.787483004571893  -12.475359749649575  23.55389265559363  0.000000
0.42  0.000000  0.000000  0.000000  -48.53906795032894  -10.56509360625964  35.19778083835451  64.05442726152633  -20.81393534044347  28.883174013769825  26.223526721897365  21.759597871716196  -12.519784997989314  23.44617637910304  0.000000
0.435  0.000000  0.000000  0.000000  -48.56762062238596  -10.605508825261916  35.206434776214394  64.13137014748631  -20.779076170697817  28.891712547623744  25.418460047009415  22.68709806206354  -12.707352403616405  23.340473003228293  0.000000
0.44999999999999996  0.000000  0.000000  0.000000  -48.588251658934595  -10.632421899349248  35.19772859487741  64.18811687267548  -20.749725205678573  28.903020512628732  24.731072837647233  23.565332783151398  -13.005379152086778  23.23135165483787  0.000000
0.46499999999999997  0.000000  0.000000  0.000000  -48.62381327096999  -10.643680978542182  35.18776582195759  64.2263136908414  -20.722195879948295  28.920258726363905  24.14849790849736  24.386952487309618  -13.373360154522453  23.115286840094548  0.000000
0.48  0.000000  0.000000  0.000000  -48.659884958068524  -10.631910308199942  35.165229721484955  64.24840875505893  -20.693328620070723  28.94171701159122  23.652277608895282  25.157198684005532  -13.773579722216256  22.99335449454117  0.000000
0.495  0.000000  0.000000  0.000000  -48.711515438656505  -10.603330567480754  35.14753868822232  64.25415593292338  -20.665767002394087  28.964650911324355  23.224864535230665  25.88164292727452  -14.181904012198816  22.86557210203083  0.000000
0.51  0.000000  0.000000  0.000000  -48.76198883861511  -10.558100800051298  35.121570156006655  64.24742185683378  -20.639084003041603  28.987350834472224  22.853318278679012  26.5716653121292  -14.583412942450188  22.731094328402545  0.000000
0.525  0.000000  0.000000  0.000000  -48.827426026166286  -10.505856554119967  35.0994581364603  64.23297928463903  -20.610518033195678  29.010510848906904  22.525784893118615  27.232939015074702  -14.969373182425748  22.589308119340856  0.000000
0.54  0.000000  0.000000  0.000000  -48.890359483044016  -10.445442806971672  35.0681538361673  64.21340671247792  -20.58012893626786  29.03356129096339  22.234611621087378  27.87392313004533  -15.337251238003253  22.441556538387207  0.000000
0.5549999999999999  0.000000  0.000000  0.000000  -48.96626677768889  -10.382041526665008  35.04309787035578  64.19004775157202  -20.549897790736704  29.056639556746216  21.97320172543608  28.497756726107387  -15.684982779593026  22.289282893996784  0.000000
0.57  0.000000  0.000000  0.000000  -49.039245642149226  -10.312220150801036  35.01240791309163  64.16444092187928  -20.519423246043093  29.07949603008667  21.7406343280194  29.10805488415326  -16.016745000099693  22.132125221101642  0.000000
0.585  0.000000  0.000000  0.000000  -49.12533877570232  -10.240190489821991  34.991439420364735  64.13711397064466  -20.490199072299873  29.102367450458008  21.533387151877832  29.704727792986407  -16.334182892851974  21.97036779867873  0.000000
0.6  0.000000  0.000000  0.000000  -49.2073694345691  -10.164232914916887  34.9669078382072  64.10882486877107  -20.462741812077862  29.124110233997353  21.35024037038304  30.291748939406233  -16.640711733786574  21.80360871168443  0.000000
0.615  0.000000  0.000000  0.000000  -49.30117328064851  -10.089127576709606  34.95186900831955  64.08003488823968  -20.437974513974325  29.145118890944502  21.188210802907445  30.868767123244464  -16.938255101934594  21.63240138022664  0.000000
0.63  0.000000  0.000000  0.000000  -49.39119334856155  -10.011017777666813  34.9334714965765  64.05151568811851  -20.415326499124333  29.165513539975205  21.04709751039786  31.436150921813965  -17.23053873968153  21.456736316863577  0.000000
0.645  0.000000  0.000000  0.000000  -49.49390891040879  -9.933900805369058  34.92511300286496  64.02357663811758  -20.395199047516456  29.185698541785374  20.925015654733198  31.992252553177867  -17.5187218404744  21.276772302324527  0.000000
